<mxfile host="app.diagrams.net" modified="2022-05-14T16:41:30.850Z" agent="5.0 (Windows NT 10.0; Win64; x64) AppleWebKit/537.36 (KHTML, like Gecko) Chrome/101.0.4951.67 Safari/537.36" etag="9sgW4bYYeaDEKzrTb9S5" version="18.0.4" type="github">
  <diagram name="Page-1" id="2cc2dc42-3aac-f2a9-1cec-7a8b7cbee084">
    <mxGraphModel dx="2674" dy="1727" grid="1" gridSize="10" guides="1" tooltips="1" connect="1" arrows="1" fold="1" page="1" pageScale="1" pageWidth="1100" pageHeight="850" background="none" math="0" shadow="0">
      <root>
        <mxCell id="0" />
        <mxCell id="1" parent="0" />
        <mxCell id="7026571954dc6520-1" value="" style="strokeWidth=1;shadow=0;dashed=0;align=center;html=1;shape=mxgraph.mockup.containers.browserWindow;rSize=0;mainText=,;recursiveResize=0;rounded=0;labelBackgroundColor=none;fontFamily=Verdana;fontSize=12;fillColor=#d5e8d4;strokeColor=#82b366;" parent="1" vertex="1">
          <mxGeometry x="-180" y="-200" width="1060" height="2050" as="geometry" />
        </mxCell>
        <mxCell id="7026571954dc6520-2" value="Page 1" style="strokeWidth=1;shadow=0;dashed=0;align=center;html=1;shape=mxgraph.mockup.containers.anchor;fontSize=17;fontColor=#666666;align=left;" parent="7026571954dc6520-1" vertex="1">
          <mxGeometry x="60" y="12" width="110" height="26" as="geometry" />
        </mxCell>
        <mxCell id="7026571954dc6520-3" value="urltiendageneral" style="strokeWidth=1;shadow=0;dashed=0;align=center;html=1;shape=mxgraph.mockup.containers.anchor;rSize=0;fontSize=17;fontColor=#666666;align=left;" parent="7026571954dc6520-1" vertex="1">
          <mxGeometry x="130" y="60" width="250" height="26" as="geometry" />
        </mxCell>
        <mxCell id="7026571954dc6520-4" value="&lt;font style=&quot;font-size: 16px;&quot;&gt;Tienda Oficial&amp;nbsp; ASIR F.C&lt;/font&gt;" style="text;html=1;points=[];align=left;verticalAlign=top;spacingTop=-4;fontSize=30;fontFamily=Verdana" parent="7026571954dc6520-1" vertex="1">
          <mxGeometry y="110" width="310" height="40" as="geometry" />
        </mxCell>
        <mxCell id="7026571954dc6520-14" value="Search" style="strokeWidth=1;shadow=0;dashed=0;align=center;html=1;shape=mxgraph.mockup.forms.searchBox;strokeColor=#999999;mainText=;strokeColor2=#008cff;fontColor=#666666;fontSize=17;align=left;spacingLeft=3;rounded=0;labelBackgroundColor=none;" parent="7026571954dc6520-1" vertex="1">
          <mxGeometry x="770" y="120" width="165" height="20" as="geometry" />
        </mxCell>
        <mxCell id="7026571954dc6520-21" value="" style="verticalLabelPosition=bottom;shadow=0;dashed=0;align=center;html=1;verticalAlign=top;strokeWidth=1;shape=mxgraph.mockup.markup.line;strokeColor=#999999;rounded=0;labelBackgroundColor=none;fillColor=#ffffff;fontFamily=Verdana;fontSize=12;fontColor=#000000;" parent="7026571954dc6520-1" vertex="1">
          <mxGeometry x="5" y="300" width="1050" height="20" as="geometry" />
        </mxCell>
        <mxCell id="0Jf4DrtOChO7xbC_QtPR-2" value="" style="verticalLabelPosition=bottom;shadow=0;dashed=0;align=center;html=1;verticalAlign=top;strokeWidth=1;shape=mxgraph.mockup.misc.shoppingCart;strokeColor=#999999;fontSize=16;" vertex="1" parent="7026571954dc6520-1">
          <mxGeometry x="950" y="115" width="30" height="30" as="geometry" />
        </mxCell>
        <mxCell id="0Jf4DrtOChO7xbC_QtPR-17" value="" style="verticalLabelPosition=bottom;shadow=0;dashed=0;align=center;html=1;verticalAlign=top;strokeWidth=1;shape=mxgraph.mockup.containers.userMale;strokeColor=#666666;strokeColor2=#008cff;fontSize=16;" vertex="1" parent="7026571954dc6520-1">
          <mxGeometry x="990" y="115" width="50" height="50" as="geometry" />
        </mxCell>
        <mxCell id="0Jf4DrtOChO7xbC_QtPR-25" value="" style="verticalLabelPosition=bottom;shadow=0;dashed=0;align=center;html=1;verticalAlign=top;strokeWidth=1;shape=mxgraph.mockup.graphics.simpleIcon;fontSize=16;fillColor=#ffe6cc;strokeColor=#d79b00;" vertex="1" parent="7026571954dc6520-1">
          <mxGeometry x="210" y="120" width="40" height="35" as="geometry" />
        </mxCell>
        <mxCell id="0Jf4DrtOChO7xbC_QtPR-27" value="" style="verticalLabelPosition=bottom;shadow=0;dashed=0;align=center;html=1;verticalAlign=top;strokeWidth=1;shape=mxgraph.mockup.misc.rating;strokeColor=#999999;fillColor=#ffff00;emptyFillColor=#ffffff;grade=4;ratingScale=5;ratingStyle=star;fontSize=16;" vertex="1" parent="7026571954dc6520-1">
          <mxGeometry x="501" y="280" width="77.5" height="10" as="geometry" />
        </mxCell>
        <mxCell id="0Jf4DrtOChO7xbC_QtPR-37" value="" style="verticalLabelPosition=bottom;shadow=0;dashed=0;align=center;html=1;verticalAlign=top;strokeWidth=1;shape=mxgraph.mockup.misc.rating;strokeColor=#999999;fillColor=#ffff00;emptyFillColor=#ffffff;grade=4;ratingScale=5;ratingStyle=star;fontSize=16;" vertex="1" parent="7026571954dc6520-1">
          <mxGeometry x="901.25" y="280" width="77.5" height="10" as="geometry" />
        </mxCell>
        <mxCell id="0Jf4DrtOChO7xbC_QtPR-36" value="" style="verticalLabelPosition=bottom;shadow=0;dashed=0;align=center;html=1;verticalAlign=top;strokeWidth=1;shape=mxgraph.mockup.misc.rating;strokeColor=#999999;fillColor=#ffff00;emptyFillColor=#ffffff;grade=4;ratingScale=5;ratingStyle=star;fontSize=16;" vertex="1" parent="7026571954dc6520-1">
          <mxGeometry x="101.25" y="280" width="77.5" height="10" as="geometry" />
        </mxCell>
        <mxCell id="0Jf4DrtOChO7xbC_QtPR-38" value="" style="verticalLabelPosition=bottom;shadow=0;dashed=0;align=center;html=1;verticalAlign=top;strokeWidth=1;shape=mxgraph.mockup.graphics.simpleIcon;strokeColor=#9673a6;fontSize=31;fillColor=#e1d5e7;" vertex="1" parent="7026571954dc6520-1">
          <mxGeometry x="70" y="460" width="170" height="260" as="geometry" />
        </mxCell>
        <mxCell id="0Jf4DrtOChO7xbC_QtPR-43" value="" style="verticalLabelPosition=bottom;shadow=0;dashed=0;align=center;html=1;verticalAlign=top;strokeWidth=1;shape=mxgraph.mockup.graphics.simpleIcon;strokeColor=#9673a6;fontSize=31;fillColor=#e1d5e7;" vertex="1" parent="7026571954dc6520-1">
          <mxGeometry x="440" y="460" width="170" height="260" as="geometry" />
        </mxCell>
        <mxCell id="0Jf4DrtOChO7xbC_QtPR-42" value="" style="verticalLabelPosition=bottom;shadow=0;dashed=0;align=center;html=1;verticalAlign=top;strokeWidth=1;shape=mxgraph.mockup.graphics.simpleIcon;strokeColor=#9673a6;fontSize=31;fillColor=#e1d5e7;" vertex="1" parent="7026571954dc6520-1">
          <mxGeometry x="810" y="460" width="170" height="260" as="geometry" />
        </mxCell>
        <mxCell id="0Jf4DrtOChO7xbC_QtPR-41" value="" style="verticalLabelPosition=bottom;shadow=0;dashed=0;align=center;html=1;verticalAlign=top;strokeWidth=1;shape=mxgraph.mockup.graphics.simpleIcon;strokeColor=#9673a6;fontSize=31;fillColor=#e1d5e7;" vertex="1" parent="7026571954dc6520-1">
          <mxGeometry x="810" y="810" width="170" height="260" as="geometry" />
        </mxCell>
        <mxCell id="0Jf4DrtOChO7xbC_QtPR-40" value="" style="verticalLabelPosition=bottom;shadow=0;dashed=0;align=center;html=1;verticalAlign=top;strokeWidth=1;shape=mxgraph.mockup.graphics.simpleIcon;strokeColor=#9673a6;fontSize=31;fillColor=#e1d5e7;" vertex="1" parent="7026571954dc6520-1">
          <mxGeometry x="70" y="810" width="170" height="260" as="geometry" />
        </mxCell>
        <mxCell id="0Jf4DrtOChO7xbC_QtPR-39" value="" style="verticalLabelPosition=bottom;shadow=0;dashed=0;align=center;html=1;verticalAlign=top;strokeWidth=1;shape=mxgraph.mockup.graphics.simpleIcon;strokeColor=#9673a6;fontSize=31;fillColor=#e1d5e7;" vertex="1" parent="7026571954dc6520-1">
          <mxGeometry x="440" y="810" width="170" height="260" as="geometry" />
        </mxCell>
        <mxCell id="0Jf4DrtOChO7xbC_QtPR-44" value="PRIMERA" style="strokeWidth=1;shadow=0;dashed=0;align=center;html=1;shape=mxgraph.mockup.buttons.button;strokeColor=#9673a6;mainText=;buttonStyle=round;fontSize=17;fontStyle=1;fillColor=#e1d5e7;whiteSpace=wrap;" vertex="1" parent="7026571954dc6520-1">
          <mxGeometry x="95" y="410" width="120" height="40" as="geometry" />
        </mxCell>
        <mxCell id="0Jf4DrtOChO7xbC_QtPR-49" value="SEGUNDA" style="strokeWidth=1;shadow=0;dashed=0;align=center;html=1;shape=mxgraph.mockup.buttons.button;strokeColor=#9673a6;mainText=;buttonStyle=round;fontSize=17;fontStyle=1;fillColor=#e1d5e7;whiteSpace=wrap;" vertex="1" parent="7026571954dc6520-1">
          <mxGeometry x="464.75" y="410" width="120" height="40" as="geometry" />
        </mxCell>
        <mxCell id="0Jf4DrtOChO7xbC_QtPR-48" value="TERCERA" style="strokeWidth=1;shadow=0;dashed=0;align=center;html=1;shape=mxgraph.mockup.buttons.button;strokeColor=#9673a6;mainText=;buttonStyle=round;fontSize=17;fontStyle=1;fillColor=#e1d5e7;whiteSpace=wrap;" vertex="1" parent="7026571954dc6520-1">
          <mxGeometry x="830" y="410" width="120" height="40" as="geometry" />
        </mxCell>
        <mxCell id="0Jf4DrtOChO7xbC_QtPR-47" value="PORTERO 1ª" style="strokeWidth=1;shadow=0;dashed=0;align=center;html=1;shape=mxgraph.mockup.buttons.button;strokeColor=#9673a6;mainText=;buttonStyle=round;fontSize=17;fontStyle=1;fillColor=#e1d5e7;whiteSpace=wrap;" vertex="1" parent="7026571954dc6520-1">
          <mxGeometry x="95" y="760" width="120" height="40" as="geometry" />
        </mxCell>
        <mxCell id="0Jf4DrtOChO7xbC_QtPR-46" value="PORTERO 2ª" style="strokeWidth=1;shadow=0;dashed=0;align=center;html=1;shape=mxgraph.mockup.buttons.button;strokeColor=#9673a6;mainText=;buttonStyle=round;fontSize=17;fontStyle=1;fillColor=#e1d5e7;whiteSpace=wrap;" vertex="1" parent="7026571954dc6520-1">
          <mxGeometry x="464.75" y="760" width="120" height="40" as="geometry" />
        </mxCell>
        <mxCell id="0Jf4DrtOChO7xbC_QtPR-45" value="ENTRENAMIENTO" style="strokeWidth=1;shadow=0;dashed=0;align=center;html=1;shape=mxgraph.mockup.buttons.button;strokeColor=#9673a6;mainText=;buttonStyle=round;fontSize=17;fontStyle=1;fillColor=#e1d5e7;whiteSpace=wrap;" vertex="1" parent="7026571954dc6520-1">
          <mxGeometry x="817.5" y="760" width="155" height="40" as="geometry" />
        </mxCell>
        <mxCell id="0Jf4DrtOChO7xbC_QtPR-50" value="&lt;font style=&quot;font-size: 32px;&quot;&gt;EQUIPACIÓN&lt;/font&gt;" style="strokeWidth=1;shadow=0;dashed=0;align=center;html=1;shape=mxgraph.mockup.buttons.button;strokeColor=#9673a6;mainText=;buttonStyle=round;fontSize=17;fontStyle=1;fillColor=#e1d5e7;whiteSpace=wrap;" vertex="1" parent="7026571954dc6520-1">
          <mxGeometry x="324.75" y="330" width="400" height="50" as="geometry" />
        </mxCell>
        <mxCell id="0Jf4DrtOChO7xbC_QtPR-52" value="&lt;span style=&quot;font-size: 32px;&quot;&gt;ACCESORIOS&lt;/span&gt;" style="strokeWidth=1;shadow=0;dashed=0;align=center;html=1;shape=mxgraph.mockup.buttons.button;strokeColor=#b85450;mainText=;buttonStyle=round;fontSize=17;fontStyle=1;fillColor=#f8cecc;whiteSpace=wrap;" vertex="1" parent="7026571954dc6520-1">
          <mxGeometry x="315" y="1140" width="400" height="50" as="geometry" />
        </mxCell>
        <mxCell id="0Jf4DrtOChO7xbC_QtPR-58" value="" style="verticalLabelPosition=bottom;shadow=0;dashed=0;align=center;html=1;verticalAlign=top;strokeWidth=1;shape=mxgraph.mockup.graphics.simpleIcon;strokeColor=#b85450;fontSize=32;fillColor=#f8cecc;" vertex="1" parent="7026571954dc6520-1">
          <mxGeometry x="65" y="1230" width="80" height="80" as="geometry" />
        </mxCell>
        <mxCell id="0Jf4DrtOChO7xbC_QtPR-61" value="" style="verticalLabelPosition=bottom;shadow=0;dashed=0;align=center;html=1;verticalAlign=top;strokeWidth=1;shape=mxgraph.mockup.graphics.simpleIcon;strokeColor=#b85450;fontSize=32;fillColor=#f8cecc;" vertex="1" parent="7026571954dc6520-1">
          <mxGeometry x="270" y="1230" width="80" height="80" as="geometry" />
        </mxCell>
        <mxCell id="0Jf4DrtOChO7xbC_QtPR-60" value="" style="verticalLabelPosition=bottom;shadow=0;dashed=0;align=center;html=1;verticalAlign=top;strokeWidth=1;shape=mxgraph.mockup.graphics.simpleIcon;strokeColor=#b85450;fontSize=32;fillColor=#f8cecc;" vertex="1" parent="7026571954dc6520-1">
          <mxGeometry x="710" y="1230" width="80" height="80" as="geometry" />
        </mxCell>
        <mxCell id="0Jf4DrtOChO7xbC_QtPR-59" value="" style="verticalLabelPosition=bottom;shadow=0;dashed=0;align=center;html=1;verticalAlign=top;strokeWidth=1;shape=mxgraph.mockup.graphics.simpleIcon;strokeColor=#b85450;fontSize=32;fillColor=#f8cecc;" vertex="1" parent="7026571954dc6520-1">
          <mxGeometry x="900" y="1230" width="80" height="80" as="geometry" />
        </mxCell>
        <mxCell id="0Jf4DrtOChO7xbC_QtPR-62" value="" style="verticalLabelPosition=bottom;shadow=0;dashed=0;align=center;html=1;verticalAlign=top;strokeWidth=1;shape=mxgraph.mockup.graphics.simpleIcon;strokeColor=#b85450;fontSize=32;fillColor=#f8cecc;" vertex="1" parent="7026571954dc6520-1">
          <mxGeometry x="490" y="1230" width="80" height="80" as="geometry" />
        </mxCell>
        <mxCell id="0Jf4DrtOChO7xbC_QtPR-63" value="Mochila" style="strokeWidth=1;shadow=0;dashed=0;align=center;html=1;shape=mxgraph.mockup.buttons.button;strokeColor=#b85450;mainText=;buttonStyle=round;fontSize=17;fontStyle=1;fillColor=#f8cecc;whiteSpace=wrap;" vertex="1" parent="7026571954dc6520-1">
          <mxGeometry x="50" y="1340" width="110" height="40" as="geometry" />
        </mxCell>
        <mxCell id="0Jf4DrtOChO7xbC_QtPR-66" value="Reloj" style="strokeWidth=1;shadow=0;dashed=0;align=center;html=1;shape=mxgraph.mockup.buttons.button;strokeColor=#b85450;mainText=;buttonStyle=round;fontSize=17;fontStyle=1;fillColor=#f8cecc;whiteSpace=wrap;" vertex="1" parent="7026571954dc6520-1">
          <mxGeometry x="255" y="1340" width="110" height="40" as="geometry" />
        </mxCell>
        <mxCell id="0Jf4DrtOChO7xbC_QtPR-65" value="Gorra" style="strokeWidth=1;shadow=0;dashed=0;align=center;html=1;shape=mxgraph.mockup.buttons.button;strokeColor=#b85450;mainText=;buttonStyle=round;fontSize=17;fontStyle=1;fillColor=#f8cecc;whiteSpace=wrap;" vertex="1" parent="7026571954dc6520-1">
          <mxGeometry x="475" y="1340" width="110" height="40" as="geometry" />
        </mxCell>
        <mxCell id="0Jf4DrtOChO7xbC_QtPR-64" value="Neceser" style="strokeWidth=1;shadow=0;dashed=0;align=center;html=1;shape=mxgraph.mockup.buttons.button;strokeColor=#b85450;mainText=;buttonStyle=round;fontSize=17;fontStyle=1;fillColor=#f8cecc;whiteSpace=wrap;" vertex="1" parent="7026571954dc6520-1">
          <mxGeometry x="695" y="1340" width="110" height="40" as="geometry" />
        </mxCell>
        <mxCell id="0Jf4DrtOChO7xbC_QtPR-67" value="Calcetines" style="strokeWidth=1;shadow=0;dashed=0;align=center;html=1;shape=mxgraph.mockup.buttons.button;strokeColor=#b85450;mainText=;buttonStyle=round;fontSize=17;fontStyle=1;fillColor=#f8cecc;whiteSpace=wrap;" vertex="1" parent="7026571954dc6520-1">
          <mxGeometry x="885" y="1340" width="110" height="40" as="geometry" />
        </mxCell>
        <mxCell id="0Jf4DrtOChO7xbC_QtPR-68" value="&lt;span style=&quot;font-size: 32px;&quot;&gt;OUTLET&lt;/span&gt;" style="strokeWidth=1;shadow=0;dashed=0;align=center;html=1;shape=mxgraph.mockup.buttons.button;strokeColor=#d6b656;mainText=;buttonStyle=round;fontSize=17;fontStyle=1;fillColor=#fff2cc;whiteSpace=wrap;" vertex="1" parent="7026571954dc6520-1">
          <mxGeometry x="320" y="1480" width="400" height="50" as="geometry" />
        </mxCell>
        <mxCell id="0Jf4DrtOChO7xbC_QtPR-69" value="" style="verticalLabelPosition=bottom;shadow=0;dashed=0;align=center;html=1;verticalAlign=top;strokeWidth=1;shape=mxgraph.mockup.graphics.simpleIcon;strokeColor=#d79b00;fontSize=32;fillColor=#ffe6cc;" vertex="1" parent="7026571954dc6520-1">
          <mxGeometry x="65" y="1550" width="130" height="170" as="geometry" />
        </mxCell>
        <mxCell id="0Jf4DrtOChO7xbC_QtPR-73" value="" style="verticalLabelPosition=bottom;shadow=0;dashed=0;align=center;html=1;verticalAlign=top;strokeWidth=1;shape=mxgraph.mockup.graphics.simpleIcon;strokeColor=#d79b00;fontSize=32;fillColor=#ffe6cc;" vertex="1" parent="7026571954dc6520-1">
          <mxGeometry x="300" y="1550" width="130" height="170" as="geometry" />
        </mxCell>
        <mxCell id="0Jf4DrtOChO7xbC_QtPR-72" value="" style="verticalLabelPosition=bottom;shadow=0;dashed=0;align=center;html=1;verticalAlign=top;strokeWidth=1;shape=mxgraph.mockup.graphics.simpleIcon;strokeColor=#d79b00;fontSize=32;fillColor=#ffe6cc;" vertex="1" parent="7026571954dc6520-1">
          <mxGeometry x="600" y="1550" width="130" height="170" as="geometry" />
        </mxCell>
        <mxCell id="0Jf4DrtOChO7xbC_QtPR-71" value="" style="verticalLabelPosition=bottom;shadow=0;dashed=0;align=center;html=1;verticalAlign=top;strokeWidth=1;shape=mxgraph.mockup.graphics.simpleIcon;strokeColor=#d79b00;fontSize=32;fillColor=#ffe6cc;" vertex="1" parent="7026571954dc6520-1">
          <mxGeometry x="850" y="1550" width="130" height="170" as="geometry" />
        </mxCell>
        <mxCell id="0Jf4DrtOChO7xbC_QtPR-75" value="" style="verticalLabelPosition=bottom;shadow=0;dashed=0;align=center;html=1;verticalAlign=top;strokeWidth=1;shape=mxgraph.mockup.markup.line;strokeColor=#999999;rounded=0;labelBackgroundColor=none;fillColor=#ffffff;fontFamily=Verdana;fontSize=12;fontColor=#000000;" vertex="1" parent="7026571954dc6520-1">
          <mxGeometry x="5" y="165" width="1050" height="20" as="geometry" />
        </mxCell>
        <mxCell id="0Jf4DrtOChO7xbC_QtPR-76" value="&lt;font style=&quot;font-size: 11px;&quot;&gt;OFERTAS&lt;/font&gt;" style="strokeWidth=1;shadow=0;dashed=0;align=center;html=1;shape=mxgraph.mockup.buttons.button;strokeColor=#10739e;mainText=;buttonStyle=round;fontSize=17;fontStyle=1;fillColor=#b1ddf0;whiteSpace=wrap;" vertex="1" parent="7026571954dc6520-1">
          <mxGeometry x="270" y="123.75" width="90" height="32.5" as="geometry" />
        </mxCell>
        <mxCell id="0Jf4DrtOChO7xbC_QtPR-82" value="&lt;font style=&quot;font-size: 15px;&quot;&gt;OUTLET&lt;/font&gt;" style="strokeWidth=1;shadow=0;dashed=0;align=center;html=1;shape=mxgraph.mockup.buttons.button;strokeColor=#10739e;mainText=;buttonStyle=round;fontSize=17;fontStyle=1;fillColor=#b1ddf0;whiteSpace=wrap;" vertex="1" parent="7026571954dc6520-1">
          <mxGeometry x="650" y="122.5" width="90" height="32.5" as="geometry" />
        </mxCell>
        <mxCell id="0Jf4DrtOChO7xbC_QtPR-81" value="&lt;font style=&quot;font-size: 12px;&quot;&gt;ACCESORIOS&lt;/font&gt;" style="strokeWidth=1;shadow=0;dashed=0;align=center;html=1;shape=mxgraph.mockup.buttons.button;strokeColor=#10739e;mainText=;buttonStyle=round;fontSize=17;fontStyle=1;fillColor=#b1ddf0;whiteSpace=wrap;" vertex="1" parent="7026571954dc6520-1">
          <mxGeometry x="525" y="121.25" width="90" height="32.5" as="geometry" />
        </mxCell>
        <mxCell id="0Jf4DrtOChO7xbC_QtPR-80" value="&lt;font style=&quot;font-size: 10px;&quot;&gt;EQUIPACIONES&lt;/font&gt;" style="strokeWidth=1;shadow=0;dashed=0;align=center;html=1;shape=mxgraph.mockup.buttons.button;strokeColor=#10739e;mainText=;buttonStyle=round;fontSize=17;fontStyle=1;fillColor=#b1ddf0;whiteSpace=wrap;" vertex="1" parent="7026571954dc6520-1">
          <mxGeometry x="390" y="121.25" width="90" height="32.5" as="geometry" />
        </mxCell>
        <mxCell id="0Jf4DrtOChO7xbC_QtPR-33" value="" style="strokeWidth=1;shadow=0;dashed=0;align=center;html=1;shape=mxgraph.mockup.buttons.multiButton;fillColor=#F89797;strokeColor=#b85450;mainText=;subText=;fontSize=16;" vertex="1" parent="7026571954dc6520-1">
          <mxGeometry x="65" y="210" width="150" height="50" as="geometry" />
        </mxCell>
        <mxCell id="0Jf4DrtOChO7xbC_QtPR-34" value="OFERTA" style="strokeWidth=1;shadow=0;dashed=0;align=center;html=1;shape=mxgraph.mockup.anchor;fontSize=16;fontColor=#ffffff;fontStyle=1;whiteSpace=wrap;" vertex="1" parent="0Jf4DrtOChO7xbC_QtPR-33">
          <mxGeometry y="8" width="150" height="20" as="geometry" />
        </mxCell>
        <mxCell id="0Jf4DrtOChO7xbC_QtPR-35" value="IMAGEN" style="strokeWidth=1;shadow=0;dashed=0;align=center;html=1;shape=mxgraph.mockup.anchor;fontSize=12;fontColor=#ffffff;fontStyle=1;whiteSpace=wrap;" vertex="1" parent="0Jf4DrtOChO7xbC_QtPR-33">
          <mxGeometry y="30" width="150" height="10" as="geometry" />
        </mxCell>
        <mxCell id="0Jf4DrtOChO7xbC_QtPR-22" value="" style="strokeWidth=1;shadow=0;dashed=0;align=center;html=1;shape=mxgraph.mockup.buttons.multiButton;fillColor=#F89797;strokeColor=#b85450;mainText=;subText=;fontSize=16;" vertex="1" parent="7026571954dc6520-1">
          <mxGeometry x="464.75" y="210" width="150" height="50" as="geometry" />
        </mxCell>
        <mxCell id="0Jf4DrtOChO7xbC_QtPR-23" value="OFERTA" style="strokeWidth=1;shadow=0;dashed=0;align=center;html=1;shape=mxgraph.mockup.anchor;fontSize=16;fontColor=#ffffff;fontStyle=1;whiteSpace=wrap;" vertex="1" parent="0Jf4DrtOChO7xbC_QtPR-22">
          <mxGeometry y="8" width="150" height="20" as="geometry" />
        </mxCell>
        <mxCell id="0Jf4DrtOChO7xbC_QtPR-24" value="IMAGEN" style="strokeWidth=1;shadow=0;dashed=0;align=center;html=1;shape=mxgraph.mockup.anchor;fontSize=12;fontColor=#ffffff;fontStyle=1;whiteSpace=wrap;" vertex="1" parent="0Jf4DrtOChO7xbC_QtPR-22">
          <mxGeometry y="30" width="150" height="10" as="geometry" />
        </mxCell>
        <mxCell id="0Jf4DrtOChO7xbC_QtPR-30" value="" style="strokeWidth=1;shadow=0;dashed=0;align=center;html=1;shape=mxgraph.mockup.buttons.multiButton;fillColor=#F89797;strokeColor=#b85450;mainText=;subText=;fontSize=16;" vertex="1" parent="7026571954dc6520-1">
          <mxGeometry x="853.75" y="210" width="150" height="50" as="geometry" />
        </mxCell>
        <mxCell id="0Jf4DrtOChO7xbC_QtPR-31" value="OFERTA" style="strokeWidth=1;shadow=0;dashed=0;align=center;html=1;shape=mxgraph.mockup.anchor;fontSize=16;fontColor=#ffffff;fontStyle=1;whiteSpace=wrap;" vertex="1" parent="0Jf4DrtOChO7xbC_QtPR-30">
          <mxGeometry y="8" width="150" height="20" as="geometry" />
        </mxCell>
        <mxCell id="0Jf4DrtOChO7xbC_QtPR-32" value="IMAGEN" style="strokeWidth=1;shadow=0;dashed=0;align=center;html=1;shape=mxgraph.mockup.anchor;fontSize=12;fontColor=#ffffff;fontStyle=1;whiteSpace=wrap;" vertex="1" parent="0Jf4DrtOChO7xbC_QtPR-30">
          <mxGeometry y="30" width="150" height="10" as="geometry" />
        </mxCell>
      </root>
    </mxGraphModel>
  </diagram>
</mxfile>
